<svg xmlns="http://www.w3.org/2000/svg" xmlns:svg="http://www.w3.org/2000/svg" xmlns:xlink="http://www.w3.org/1999/xlink" id="svg2" width="16" height="16" version="1.1"><defs id="defs4"><linearGradient id="linearGradient4403"><stop style="stop-color:#fff;stop-opacity:1" id="stop4405" offset="0"/><stop id="stop4411" offset=".82" style="stop-color:#fff;stop-opacity:.71372551"/><stop style="stop-color:#fff;stop-opacity:1" id="stop4407" offset="1"/></linearGradient><linearGradient id="linearGradient3844"><stop style="stop-color:#000;stop-opacity:.15686275" id="stop3846" offset="0"/><stop id="stop4397" offset=".5" style="stop-color:#000;stop-opacity:.39215687"/><stop style="stop-color:#000;stop-opacity:.15686275" id="stop3848" offset="1"/></linearGradient><linearGradient id="linearGradient3850" x1="15.5" x2="112.5" y1="64" y2="64" gradientUnits="userSpaceOnUse" xlink:href="#linearGradient3844"/><linearGradient id="linearGradient4409" x1="19.274" x2="109.096" y1="63.961" y2="63.961" gradientUnits="userSpaceOnUse" xlink:href="#linearGradient4403"/><linearGradient id="linearGradient4452" x1="18.88" x2="109.213" y1="64.08" y2="64.08" gradientUnits="userSpaceOnUse" xlink:href="#linearGradient4403"/><linearGradient id="linearGradient4460-9" x1="27.529" x2="122.471" y1="58" y2="58" gradientUnits="userSpaceOnUse" xlink:href="#linearGradient3844-9"/><linearGradient id="linearGradient3844-9"><stop style="stop-color:#000;stop-opacity:.15686275" id="stop3846-5" offset="0"/><stop id="stop4397-2" offset=".5" style="stop-color:#000;stop-opacity:.39215687"/><stop style="stop-color:#000;stop-opacity:.15686275" id="stop3848-1" offset="1"/></linearGradient><linearGradient id="linearGradient4486" x1="27.529" x2="122.471" y1="58" y2="58" gradientUnits="userSpaceOnUse" xlink:href="#linearGradient3844-9"/><linearGradient id="linearGradient5231" x1="14.5" x2="55.5" y1="48" y2="48" gradientUnits="userSpaceOnUse" xlink:href="#linearGradient3844"/><linearGradient id="linearGradient5231-5" x1="14.5" x2="55.5" y1="48" y2="48" gradientUnits="userSpaceOnUse" xlink:href="#linearGradient3844-3"/><linearGradient id="linearGradient3844-3"><stop style="stop-color:#000;stop-opacity:.15686275" id="stop3846-8" offset="0"/><stop id="stop4397-6" offset=".5" style="stop-color:#000;stop-opacity:.39215687"/><stop style="stop-color:#000;stop-opacity:.15686275" id="stop3848-0" offset="1"/></linearGradient><linearGradient id="linearGradient5249" x1="14.5" x2="55.5" y1="48" y2="48" gradientUnits="userSpaceOnUse" xlink:href="#linearGradient3844-3"/><linearGradient id="linearGradient5282" x1="72.5" x2="112.517" y1="78" y2="78" gradientUnits="userSpaceOnUse" xlink:href="#linearGradient3844-3"/></defs><metadata id="metadata7"/><g id="layer1" transform="translate(0,-1036.3622)"><path style="font-size:medium;font-style:normal;font-variant:normal;font-weight:400;font-stretch:normal;text-indent:0;text-align:start;text-decoration:none;line-height:normal;letter-spacing:normal;word-spacing:normal;text-transform:none;direction:ltr;block-progression:tb;writing-mode:lr-tb;text-anchor:start;baseline-shift:baseline;color:#000;fill:#bebebe;fill-opacity:1;stroke:none;stroke-width:1.7857691;marker:none;visibility:visible;display:inline;overflow:visible;enable-background:accumulate;font-family:Sans;-inkscape-font-specification:Sans" id="path4715-4" d="m 3.875,1038.3438 c -2.1262955,0 -3.875,1.7486 -3.875,3.875 0,2.1263 1.7487045,3.8437 3.875,3.8437 2.1262965,0 3.875,-1.7174 3.875,-3.8437 0,-2.1264 -1.7487035,-3.875 -3.875,-3.875 z"/><path style="font-size:medium;font-style:normal;font-variant:normal;font-weight:400;font-stretch:normal;text-indent:0;text-align:start;text-decoration:none;line-height:normal;letter-spacing:normal;word-spacing:normal;text-transform:none;direction:ltr;block-progression:tb;writing-mode:lr-tb;text-anchor:start;baseline-shift:baseline;color:#000;fill:#bebebe;fill-opacity:1;stroke:none;stroke-width:1.7857691;marker:none;visibility:visible;display:inline;overflow:visible;enable-background:accumulate;font-family:Sans;-inkscape-font-specification:Sans" id="path5271-9" d="m 12.125,1038.25 c -2.1262953,0 -3.875,1.7487 -3.875,3.875 0,2.1263 1.7486685,3.875 3.875,3.875 0.410407,0 0.78419,-0.1299 1.15625,-0.25 -0.801883,1.3573 -2.046351,2.3617 -3.6875,2.9688 -0.4418033,0.1636 -0.694916,0.7144 -0.5312813,1.1562 0.1636347,0.4418 0.7145096,0.6949 1.1562813,0.5312 3.391471,-1.2543 5.875769,-4.1685 5.78125,-8.2812 -0.0037,-0.063 -0.01421,-0.1263 -0.03125,-0.1875 -0.0037,-0.063 -0.01421,-0.1263 -0.03125,-0.1875 -0.0013,-0.013 -0.02986,-0.019 -0.03125,-0.031 -0.215087,-1.9273 -1.799566,-3.4688 -3.78125,-3.4688 z"/></g></svg>