<svg xmlns="http://www.w3.org/2000/svg" xmlns:svg="http://www.w3.org/2000/svg" xmlns:xlink="http://www.w3.org/1999/xlink" id="svg3904" width="12.8pt" height="12.8pt" version="1.1"><metadata id="metadata3912"/><defs id="defs3906"><linearGradient id="gradient0" x1=".667" x2="10" y1="13.2" y2="13.2" gradientTransform="matrix(0.159091,0,0,0.115385,-2.95455,-4.9231)" gradientUnits="objectBoundingBox" spreadMethod="pad"><stop id="stop7" offset="0" stop-color="#fff" stop-opacity="1" style="stop-color:#dedede;stop-opacity:1"/><stop id="stop9" offset=".82" stop-color="#fff" stop-opacity=".714" style="stop-color:#dedede;stop-opacity:.86400002"/><stop id="stop11" offset="1" stop-color="#fff" stop-opacity="1" style="stop-color:#dedede;stop-opacity:1"/></linearGradient><linearGradient id="linearGradient3929" x1="5.164" x2="77.46" y1="102.247" y2="102.247" gradientTransform="matrix(1.5491933,0,0,0.64549722,2,6)" gradientUnits="userSpaceOnUse" spreadMethod="pad" xlink:href="#gradient0"/></defs><path style="fill:#bebebe;fill-opacity:1" id="path5518" d="M 0,3 0,13 16,13 16,3 z M 1,4 4,4 4,6 1,6 z M 5,4 7,4 7,6 5,6 z m 3,0 2,0 0,2 -2,0 z m 3,0 2,0 0,2 -2,0 z m 3,0 1,0 0,2 -1,0 z M 2,7 5,7 5,9 2,9 z M 6,7 8,7 8,9 6,9 z m 3,0 2,0 0,2 -2,0 z m 3,0 2,0 0,2 -2,0 z m -11,3 3,0 0,2 -3,0 z m 4,0 7,0 0,2 -7,0 z m 8,0 2,0 0,2 -2,0 z"/></svg>