<svg xmlns="http://www.w3.org/2000/svg" xmlns:svg="http://www.w3.org/2000/svg" id="svg2" width="16" height="16" version="1.1"><metadata id="metadata27"/><defs id="defs4"><linearGradient id="gradient0" x1=".497" x2="1.497" y1="1.547" y2="1.547" gradientTransform="translate(-17.2067,-36.2106)" gradientUnits="objectBoundingBox" spreadMethod="pad"><stop id="stop7" offset="0" stop-color="#fff" stop-opacity="1"/><stop id="stop9" offset=".82" stop-color="#fff" stop-opacity=".714"/><stop id="stop11" offset="1" stop-color="#fff" stop-opacity="1"/></linearGradient><linearGradient id="gradient1" x1="2.103" x2="3.103" y1="1.534" y2="1.534" gradientTransform="translate(-72.7198,-35.7286)" gradientUnits="objectBoundingBox" spreadMethod="pad"><stop id="stop14" offset="0" stop-color="#fff" stop-opacity="1"/><stop id="stop16" offset=".82" stop-color="#fff" stop-opacity=".714"/><stop id="stop18" offset="1" stop-color="#fff" stop-opacity="1"/></linearGradient></defs><g id="layer1" transform="translate(0,-112)"><path style="font-size:medium;font-style:normal;font-variant:normal;font-weight:400;font-stretch:normal;text-indent:0;text-align:start;text-decoration:none;line-height:normal;letter-spacing:normal;word-spacing:normal;text-transform:none;direction:ltr;block-progression:tb;writing-mode:lr-tb;text-anchor:start;baseline-shift:baseline;color:#000;fill:#bebebe;fill-opacity:1;stroke:none;stroke-width:1.7857691;marker:none;visibility:visible;display:inline;overflow:visible;enable-background:accumulate;font-family:Sans;-inkscape-font-specification:Sans" id="path4715" d="m 3.875,113.96875 c -2.1263063,0 -3.875,1.7487 -3.875,3.875 0,2.12631 1.7486973,3.875 3.875,3.875 2.1263038,0 3.875,-1.74869 3.875,-3.875 0,-2.1263 -1.7486926,-3.875 -3.875,-3.875 z m 0,1.78125 c 1.1612042,0 2.0625,0.93255 2.0625,2.09375 0,1.16121 -0.9012922,2.09375 -2.0625,2.09375 -1.1612059,0 -2.09375,-0.93254 -2.09375,-2.09375 0,-1.1612 0.9325477,-2.09375 2.09375,-2.09375 z"/><path style="font-size:medium;font-style:normal;font-variant:normal;font-weight:400;font-stretch:normal;text-indent:0;text-align:start;text-decoration:none;line-height:normal;letter-spacing:normal;word-spacing:normal;text-transform:none;direction:ltr;block-progression:tb;writing-mode:lr-tb;text-anchor:start;baseline-shift:baseline;color:#000;fill:#bebebe;fill-opacity:1;stroke:none;stroke-width:1.7857691;marker:none;visibility:visible;display:inline;overflow:visible;enable-background:accumulate;font-family:Sans;-inkscape-font-specification:Sans" id="path5271" d="m 12.125,113.90625 c -2.1263061,0 -3.875,1.7487 -3.875,3.875 0,2.12631 1.7486975,3.84375 3.875,3.84375 0.409882,0 0.784603,-0.099 1.15625,-0.21875 -0.802258,1.35355 -2.049227,2.36281 -3.6875,2.96875 a 0.89297384,0.89297384 0 1 0 0.625,1.65625 c 3.364076,-1.24425 5.833631,-4.12691 5.78125,-8.1875 -2.84e-4,-0.022 4.34e-4,-0.0404 0,-0.0625 0,-0.0106 8.7e-5,-0.0207 0,-0.0312 a 0.89297384,0.89297384 0 0 0 -0.03125,-0.1875 0.89297384,0.89297384 0 0 0 -0.03125,-0.15625 0.89297384,0.89297384 0 0 0 -0.03125,-0.0312 c -0.215086,-1.92722 -1.799556,-3.46875 -3.78125,-3.46875 z m 0,1.78125 c 1.161204,0 2.09375,0.93255 2.09375,2.09375 0,1.16121 -0.932542,2.0625 -2.09375,2.0625 -1.161206,0 -2.09375,-0.90129 -2.09375,-2.0625 0,-1.1612 0.932548,-2.09375 2.09375,-2.09375 z"/></g></svg>