<svg xmlns="http://www.w3.org/2000/svg" xmlns:svg="http://www.w3.org/2000/svg" id="svg2" width="16" height="16" version="1.1"><metadata id="metadata19"/><defs id="defs4"><linearGradient id="gradient0" x1=".273" x2="1.273" y1=".716" y2=".716" gradientTransform="translate(-23.4096,-19.3901)" gradientUnits="objectBoundingBox" spreadMethod="pad"><stop id="stop7" offset="0" stop-color="#fff" stop-opacity="1"/><stop id="stop9" offset=".82" stop-color="#fff" stop-opacity=".714"/><stop id="stop11" offset="1" stop-color="#fff" stop-opacity="1"/></linearGradient></defs><g id="layer1" transform="translate(0,-112)"><path id="path4508" d="M 7.1448948,127.98806 C 6.2429464,127.87118 5.2282889,127.56034 4.423355,127.1544 3.0843165,126.47908 1.6990614,125.12487 1.0568556,123.86335 l -0.13110452,-0.25753 0.57572172,-0.0329 c 3.5753543,-0.20457 6.855559,-2.91666 7.8122152,-6.4592 0.5008403,-1.82218 0.135477,-3.24845 0.013453,-4.8308 3.1173526,0.60288 5.9301566,3.82203 6.4850646,6.23849 0.270022,1.30487 0.1557,2.95402 -0.29164,4.20642 -1.138859,3.18857 -4.214893,5.34177 -7.5623487,5.2936 -0.3440879,-0.005 -0.7100915,-0.0199 -0.8133243,-0.0333 z" style="fill:#bebebe;fill-opacity:1"/></g></svg>