<svg xmlns="http://www.w3.org/2000/svg" xmlns:svg="http://www.w3.org/2000/svg" xmlns:xlink="http://www.w3.org/1999/xlink" id="svg3904" width="12.8pt" height="12.8pt" version="1.1"><metadata id="metadata3912"/><defs id="defs3906"><linearGradient id="gradient0" x1=".667" x2="10" y1="13.2" y2="13.2" gradientTransform="matrix(0.159091,0,0,0.115385,-2.95455,-4.9231)" gradientUnits="objectBoundingBox" spreadMethod="pad"><stop id="stop7" offset="0" stop-color="#fff" stop-opacity="1" style="stop-color:#dedede;stop-opacity:1"/><stop id="stop9" offset=".82" stop-color="#fff" stop-opacity=".714" style="stop-color:#dedede;stop-opacity:.86400002"/><stop id="stop11" offset="1" stop-color="#fff" stop-opacity="1" style="stop-color:#dedede;stop-opacity:1"/></linearGradient><linearGradient id="linearGradient3929" x1="5.164" x2="77.46" y1="102.247" y2="102.247" gradientTransform="matrix(1.5491933,0,0,0.64549722,2,6)" gradientUnits="userSpaceOnUse" spreadMethod="pad" xlink:href="#gradient0"/></defs><g id="layer1"><path id="path5518" fill="#000" d="M0 0L0 7L14 7L14 0ZM1 1L3 1L3 2L1 2ZM4 1L5 1L5 2L4 2ZM6 1L7 1L7 2L6 2ZM8 1L9 1L9 2L8 2ZM10 1L11 1L11 2L10 2ZM12 1L13 1L13 2L12 2ZM1 3L4 3L4 4L1 4ZM5 3L7 3L7 4L5 4ZM8 3L10 3L10 4L8 4ZM11 3L13 3L13 4L11 4ZM1 5L3 5L3 6L1 6ZM4 5L13 5L13 6L4 6Z" opacity=".4" transform="translate(1, 5)"/></g><path id="path5518-6" d="M 2,6 4,6 4,7 2,7 z M 5,6 6,6 6,7 5,7 z M 7,6 8,6 8,7 7,7 z m 2,0 1,0 0,1 -1,0 z m 2,0 1,0 0,1 -1,0 z m 2,0 1,0 0,1 -1,0 z M 2,8 5,8 5,9 2,9 z M 6,8 8,8 8,9 6,9 z m 3,0 2,0 0,1 -2,0 z m 3,0 2,0 0,1 -2,0 z m -10,2 2,0 0,1 -2,0 z m 3,0 9,0 0,1 -9,0 z" style="opacity:.7;fill:url(#linearGradient3929)"/></svg>