<svg xmlns="http://www.w3.org/2000/svg" xmlns:xlink="http://www.w3.org/1999/xlink" width="102.4pt" height="102.4pt"><defs><linearGradient id="gradient0" x1=".209" x2="1.209" y1=".709" y2=".709" gradientTransform="translate(-18.8802, -18.8617)" gradientUnits="objectBoundingBox" spreadMethod="pad"><stop offset="0" stop-color="#fff" stop-opacity="1"/><stop offset=".82" stop-color="#fff" stop-opacity=".714"/><stop offset="1" stop-color="#fff" stop-opacity="1"/></linearGradient></defs><g id="layer1"><path id="path4432" fill="none" stroke="#000" stroke-linecap="butt" stroke-linejoin="miter" stroke-miterlimit="4" stroke-width="4.941" d="M90 50C90 77.6142 69.8528 100 45 100C20.1472 100 3.55271e-15 77.6142 0 50C-7.10543e-15 22.3858 20.1472 5.32907e-15 45 0C69.8528 -6.21725e-15 90 22.3858 90 50Z" opacity=".4" transform="matrix(1.06667 0 0 0.96 16 16)"/><path id="path4444" fill="url(#gradient0)" d="M38.1944 89.9052C19.6218 86.9987 4.68315 72.7059 0.680896 54.0136C-0.227201 49.7724 -0.226913 40.3886 0.681444 36.1734C4.21596 19.7715 16.0409 6.77222 31.8498 1.90949C36.7715 0.39562 39.6064 -0.00422544 45.3881 3.35622e-05C62.3117 0.0124936 77.6132 9.39974 85.4602 24.5838C90.9599 35.2258 91.8742 48.8816 87.8429 60.1685C80.539 80.6177 59.4728 93.2352 38.1944 89.9052Z" opacity=".7" transform="translate(18.8802, 18.8617)"/></g></svg>