<svg xmlns="http://www.w3.org/2000/svg" xmlns:svg="http://www.w3.org/2000/svg" xmlns:xlink="http://www.w3.org/1999/xlink" id="svg2" width="128" height="128" version="1.1"><defs id="defs4"><linearGradient id="linearGradient4403"><stop style="stop-color:#fff;stop-opacity:1" id="stop4405" offset="0"/><stop id="stop4411" offset=".82" style="stop-color:#fff;stop-opacity:.71372551"/><stop style="stop-color:#fff;stop-opacity:1" id="stop4407" offset="1"/></linearGradient><linearGradient id="linearGradient3844"><stop style="stop-color:#000;stop-opacity:.15686275" id="stop3846" offset="0"/><stop id="stop4397" offset=".5" style="stop-color:#000;stop-opacity:.39215687"/><stop style="stop-color:#000;stop-opacity:.15686275" id="stop3848" offset="1"/></linearGradient><linearGradient id="linearGradient3850" x1="15.5" x2="112.5" y1="64" y2="64" gradientUnits="userSpaceOnUse" xlink:href="#linearGradient3844"/><linearGradient id="linearGradient4409" x1="19.274" x2="109.096" y1="63.961" y2="63.961" gradientUnits="userSpaceOnUse" xlink:href="#linearGradient4403"/><linearGradient id="linearGradient4452" x1="18.88" x2="109.213" y1="64.08" y2="64.08" gradientUnits="userSpaceOnUse" xlink:href="#linearGradient4403"/><linearGradient id="linearGradient4460-9" x1="27.529" x2="122.471" y1="58" y2="58" gradientUnits="userSpaceOnUse" xlink:href="#linearGradient3844-9"/><linearGradient id="linearGradient3844-9"><stop style="stop-color:#000;stop-opacity:.15686275" id="stop3846-5" offset="0"/><stop id="stop4397-2" offset=".5" style="stop-color:#000;stop-opacity:.39215687"/><stop style="stop-color:#000;stop-opacity:.15686275" id="stop3848-1" offset="1"/></linearGradient><linearGradient id="linearGradient4486" x1="27.529" x2="122.471" y1="58" y2="58" gradientUnits="userSpaceOnUse" xlink:href="#linearGradient3844-9"/><linearGradient id="linearGradient5231" x1="14.5" x2="55.5" y1="48" y2="48" gradientUnits="userSpaceOnUse" xlink:href="#linearGradient3844"/><linearGradient id="linearGradient5231-5" x1="14.5" x2="55.5" y1="48" y2="48" gradientUnits="userSpaceOnUse" xlink:href="#linearGradient3844-3"/><linearGradient id="linearGradient3844-3"><stop style="stop-color:#000;stop-opacity:.15686275" id="stop3846-8" offset="0"/><stop id="stop4397-6" offset=".5" style="stop-color:#000;stop-opacity:.39215687"/><stop style="stop-color:#000;stop-opacity:.15686275" id="stop3848-0" offset="1"/></linearGradient><linearGradient id="linearGradient5249" x1="14.5" x2="55.5" y1="48" y2="48" gradientUnits="userSpaceOnUse" xlink:href="#linearGradient3844-3"/><linearGradient id="linearGradient5282" x1="72.5" x2="112.517" y1="78" y2="78" gradientUnits="userSpaceOnUse" xlink:href="#linearGradient3844-3"/></defs><metadata id="metadata7"/><g id="layer1" transform="translate(0,-924.36218)"><path style="font-size:medium;font-style:normal;font-variant:normal;font-weight:400;font-stretch:normal;text-indent:0;text-align:start;text-decoration:none;line-height:normal;letter-spacing:normal;word-spacing:normal;text-transform:none;direction:ltr;block-progression:tb;writing-mode:lr-tb;text-anchor:start;baseline-shift:baseline;opacity:1;color:#000;fill:#000;fill-opacity:.3137255;stroke:none;stroke-width:5;marker:none;visibility:visible;display:inline;overflow:visible;enable-background:accumulate;font-family:Sans;-inkscape-font-specification:Sans" id="path4715" d="m 34.5,955.36218 c -12.396795,0 -22.5,10.1032 -22.5,22.5 0,12.39679 10.103205,22.50002 22.5,22.50002 12.396795,0 22.5,-10.10323 22.5,-22.50002 0,-12.3968 -10.103205,-22.5 -22.5,-22.5 z"/><path style="font-size:medium;font-style:normal;font-variant:normal;font-weight:400;font-stretch:normal;text-indent:0;text-align:start;text-decoration:none;line-height:normal;letter-spacing:normal;word-spacing:normal;text-transform:none;direction:ltr;block-progression:tb;writing-mode:lr-tb;text-anchor:start;baseline-shift:baseline;color:#000;fill:#000;fill-opacity:.3137255;stroke:none;stroke-width:5;marker:none;visibility:visible;display:inline;overflow:visible;enable-background:accumulate;font-family:Sans;-inkscape-font-specification:Sans" id="path5271" d="m 90,954.86218 c -12.396795,0 -22.5,10.1032 -22.5,22.5 0,12.39679 10.103205,22.5 22.5,22.5 5.992191,0 11.4303,-2.37964 15.46875,-6.21875 -4.48897,15.25917 -16.057436,25.72117 -31.34375,31.37497 l 1.75,4.6875 c 21.691375,-8.0228 37.17438,-26.0988 36.625,-52.28122 -4.5e-4,-0.0216 4.7e-4,-0.0409 0,-0.0625 0,-0.0211 6e-5,-0.0414 0,-0.0625 -0.0344,-12.36781 -10.12436,-22.4375 -22.5,-22.4375 z m 17.5,22.5 c -71.666667,50.00002 -35.833333,25.00002 0,0 z"/></g></svg>