<svg xmlns="http://www.w3.org/2000/svg" xmlns:svg="http://www.w3.org/2000/svg" id="svg2" width="102.4pt" height="102.4pt" version="1.1"><metadata id="metadata27"/><defs id="defs4"><linearGradient id="gradient0" x1=".497" x2="1.497" y1="1.547" y2="1.547" gradientTransform="translate(-17.2067, -36.2106)" gradientUnits="objectBoundingBox" spreadMethod="pad"><stop id="stop7" offset="0" stop-color="#fff" stop-opacity="1"/><stop id="stop9" offset=".82" stop-color="#fff" stop-opacity=".714"/><stop id="stop11" offset="1" stop-color="#fff" stop-opacity="1"/></linearGradient><linearGradient id="gradient1" x1="2.103" x2="3.103" y1="1.534" y2="1.534" gradientTransform="translate(-72.7198, -35.7286)" gradientUnits="objectBoundingBox" spreadMethod="pad"><stop id="stop14" offset="0" stop-color="#fff" stop-opacity="1"/><stop id="stop16" offset=".82" stop-color="#fff" stop-opacity=".714"/><stop id="stop18" offset="1" stop-color="#fff" stop-opacity="1"/></linearGradient></defs><g id="layer1"><path id="path4715" fill="none" stroke="#000" stroke-linecap="butt" stroke-linejoin="miter" stroke-miterlimit="4" stroke-width="5" d="M40 20C40 31.0457 31.0457 40 20 40C8.95431 40 5.32907e-15 31.0457 3.55271e-15 20C1.77636e-15 8.95431 8.95431 0 20 0C31.0457 0 40 8.95431 40 20Z" opacity=".4" transform="translate(14.5, 33.5)"/><path id="path5271" fill="none" stroke="#000" stroke-linecap="butt" stroke-linejoin="miter" stroke-miterlimit="4" stroke-width="5" d="M5 70C25.9679 62.2448 40.5806 45.2634 40 20M40 20C40 31.0457 31.0457 40 20 40C8.95431 40 0 31.0457 0 20C0 8.9543 8.95431 0 20 0C31.0457 0 40 8.9543 40 20Z" opacity=".4" transform="translate(70, 33)"/><path id="path5285" fill="url(#gradient0)" d="M13.7596 34.3029C10.051 33.4532 7.25249 31.8248 4.57694 28.9599C1.53949 25.7074 0.00730864 21.8159 2.36388e-05 17.3352C-0.0108764 10.6302 3.74851 4.5843 9.72599 1.69372C14.4183 -0.575395 20.2654 -0.563737 24.9001 1.72397C30.8521 4.66184 34.6029 10.656 34.5896 17.2089C34.5797 22.1133 33.0155 25.8908 29.5519 29.3748C27.1561 31.7847 25.5922 32.7766 22.5985 33.7849C20.1269 34.6174 16.1496 34.8504 13.7596 34.3029Z" transform="translate(17.2067, 36.2106)" style="opacity:.7"/><path id="path5287" fill="url(#gradient1)" d="M14.201 34.3755C8.33067 33.1371 4.05854 29.7723 1.5431 24.406C0.372118 21.9079 -0.0219244 20.039 0.000932584 17.0915C0.0380626 12.3036 1.62309 8.56285 5.09226 5.07574C6.80944 3.34969 7.66823 2.70721 9.38541 1.86399C12.0517 0.554665 14.3972 0 17.2674 0C20.2929 0 21.99 0.385679 24.664 1.68095C30.6575 4.58421 34.2051 9.87927 34.5598 16.4511C34.9843 24.3151 29.8955 31.4871 22.1596 33.9276C20.3855 34.4872 15.9215 34.7385 14.201 34.3755Z" transform="translate(72.7198, 35.7286)" style="opacity:.7"/></g></svg>