<svg xmlns="http://www.w3.org/2000/svg" xmlns:svg="http://www.w3.org/2000/svg" id="svg2" width="102.4pt" height="102.4pt" version="1.1"><metadata id="metadata19"/><defs id="defs4"><linearGradient id="gradient0" x1=".273" x2="1.273" y1=".716" y2=".716" gradientTransform="translate(-23.4096, -19.3901)" gradientUnits="objectBoundingBox" spreadMethod="pad"><stop id="stop7" offset="0" stop-color="#fff" stop-opacity="1"/><stop id="stop9" offset=".82" stop-color="#fff" stop-opacity=".714"/><stop id="stop11" offset="1" stop-color="#fff" stop-opacity="1"/></linearGradient></defs><g id="layer1"><path id="path4432" fill="none" stroke="#000" stroke-linecap="butt" stroke-linejoin="miter" stroke-miterlimit="4" stroke-width="5" d="M48 0C50.0942 5.38925 51.25 11.2455 51.25 17.375C51.25 43.8847 29.7597 65.375 3.25 65.375C2.15599 65.375 1.07576 65.322 0 65.25C6.96314 83.1687 24.3699 95.875 44.75 95.875C71.2597 95.875 92.75 74.3847 92.75 47.875C92.75 22.4593 72.9916 1.67365 48 0Z" opacity=".4" transform="translate(19.25, 16.125)"/><path id="path4508" fill="url(#gradient0)" d="M35.5015 89.6679C30.3528 89.0006 24.5607 87.2263 19.9658 84.909C12.322 81.054 4.41437 73.3236 0.748386 66.1223L0 64.6522L3.28646 64.4642C23.6961 63.2965 42.4209 47.8147 47.8819 27.5924C50.0555 19.5435 50.2199 9.851 48.311 2.28502C48.0205 1.13383 47.862 0.112832 47.9587 0.0161431C48.0554 -0.0805469 49.7921 0.267206 51.818 0.788925C68.5257 5.09152 81.474 18.6955 84.9782 35.6281C86.5196 43.0768 85.867 52.4909 83.3134 59.6401C76.8123 77.8418 59.253 90.1332 40.1443 89.8582C38.1801 89.8299 36.0908 89.7443 35.5015 89.6679Z" transform="translate(23.4096, 19.3901)" style="opacity:.7"/></g></svg>