<svg xmlns="http://www.w3.org/2000/svg" xmlns:svg="http://www.w3.org/2000/svg" xmlns:xlink="http://www.w3.org/1999/xlink" id="svg2" width="204.8" height="204.8" version="1.1"><metadata id="metadata10"/><defs id="defs4"><linearGradient id="gradient0" x1=".05" x2=".75" y1=".75" y2=".75" gradientTransform="matrix(2,0,0,2,-28,-88)" gradientUnits="objectBoundingBox" spreadMethod="pad"><stop id="stop7" offset="0" stop-color="#fff" stop-opacity="1" style="stop-color:#c8c8c8;stop-opacity:1"/><stop id="stop9" offset=".82" stop-color="#fff" stop-opacity=".714" style="stop-color:#dedede;stop-opacity:.88800001"/><stop id="stop11" offset="1" stop-color="#fff" stop-opacity="1" style="stop-color:#dedede;stop-opacity:1"/></linearGradient><linearGradient id="linearGradient3003" x1="5.933" x2="88.994" y1="88.994" y2="88.994" gradientTransform="matrix(1.348399,0,0,0.74162027,16,55.999893)" gradientUnits="userSpaceOnUse" spreadMethod="pad" xlink:href="#gradient0"/></defs><g id="layer1"><path id="path5518" fill="#000" d="M0 0L0 104L176 104L176 1e-05ZM8 8L32 8L32 32L8 32ZM40 8L64 8L64 32L40 32ZM72 8L96 8L96 32L72 32ZM104 8L128 8L128 32L104 32ZM136 8L167 8.00001L167 32L136 32ZM8 40L48 40L48 64L8 64ZM56 40L80 40L80 64L56 64ZM88 40L112 40L112 64L88 64ZM120 40L144 40L144 64L120 64ZM152 40L168 40L168 64L152 64ZM8 72L40 72L40 96.0001L8 96.0001ZM48 72L168 72L168 96.0001L48 96.0001Z" opacity=".4" transform="translate(8, 47.9999)"/></g><path id="path5518-1" d="m 16,55.999893 24,0 0,24 -24,0 z m 32,0 24,0 0,24 -24,0 z m 32,0 24,0 0,24 -24,0 z m 32,0 24,0 0,24 -24,0 z m 32,0 31,1e-5 0,23.99999 -31,0 z m -128,32 40,0 0,24.000007 -40,0 z m 48,0 24,0 0,24.000007 -24,0 z m 32,0 24,0 0,24.000007 -24,0 z m 32,0 24,0 0,24.000007 -24,0 z m 32,0 16,0 0,24.000007 -16,0 z M 16,119.9999 l 32,0 0,24.0001 -32,0 z m 40,0 120,0 0,24.0001 -120,0 z" style="opacity:.7;fill:url(#linearGradient3003)"/></svg>